<svg data-name="Layer 1" height="65" width="52" xmlns="http://www.w3.org/2000/svg" xmlns:xlink="http://www.w3.org/1999/xlink" viewBox="0 0 470.21 515"><defs><linearGradient id="a" x1="81.95" y1="52.21" x2="108.87" y2="52.21" gradientTransform="matrix(1 0 0 -1 0 516)" gradientUnits="userSpaceOnUse"><stop offset="0" stop-color="#9932f5"/><stop offset=".19" stop-color="#8432f4"/><stop offset=".58" stop-color="#5033f1"/><stop offset=".62" stop-color="#4933f1"/><stop offset="1" stop-color="#496cfe"/></linearGradient><linearGradient id="b" x1="-.02" y1="157.2" x2="456.17" y2="157.2" xlink:href="#a"/><linearGradient id="c" x1="3.29" y1="388.27" x2="154.4" y2="388.27" xlink:href="#a"/><linearGradient id="d" x1="161.23" y1="443.33" x2="312.46" y2="443.33" xlink:href="#a"/><linearGradient id="e" x1="319.04" y1="388.32" x2="470.19" y2="388.32" xlink:href="#a"/></defs><g data-name="Layer 1-2" fill="none" stroke-miterlimit="10" stroke-width="3"><path d="M83.45 463.79a12 12 0 1112 12 12 12 0 01-12-12" transform="translate(.02 .01)" stroke="url(#a)"/><path d="M441.69 383.06a25 25 0 003.82-13.31v-4.22a25.21 25.21 0 00-25.17-25.17h-78.26a24.72 24.72 0 00-5 .5L351.17 270a85.05 85.05 0 00.7-30.35c-2.66-16.21-11.23-35.53-36.91-35.53a7.54 7.54 0 00-7.41 6.26l-4.93 29a224.56 224.56 0 01-7.94 32.45c-9.2 27.88-20.8 42.18-41.39 51-9.89 4.23-17.92 7.85-21.14 9.31h-31v-6a7.52 7.52 0 00-7.52-7.51H142.8v-8.1a7.51 7.51 0 00-7.51-7.51H9a7.51 7.51 0 00-7.51 7.51h0v44.57a7.51 7.51 0 1015 .77V318.1h111.29v176.79H16.53V380.17a7.52 7.52 0 00-15-1.1 6.73 6.73 0 000 1.1V502.4A7.51 7.51 0 009 509.91h126.29a7.51 7.51 0 007.51-7.51h0v-8.1h50.86a7.51 7.51 0 007.51-7.51h0v-3.53h30l16.14 13.07a76.63 76.63 0 0048.06 17h45.92a29 29 0 002.94.16h53.66a27.25 27.25 0 0024.22-39.8 27.26 27.26 0 0018.89-42 25.19 25.19 0 0013.67-22.38v-4.21a25.18 25.18 0 00-12.98-22.04zm-99.61-27.67h78.26a10.17 10.17 0 0110.15 10.15v4.21a10.16 10.16 0 01-10.15 10.14h-78.26a10.15 10.15 0 01-10.14-10.14v-4c.49-1.82.92-3.54 1.28-5.1a10.15 10.15 0 018.86-5.26zm-25.17 130.84a27.16 27.16 0 002.84 12.1h-24.42a61.56 61.56 0 01-38.6-13.67l-18.22-14.75a7.51 7.51 0 00-4.72-1.67h-32.62V446.7a7.52 7.52 0 10-15-1.1 6.73 6.73 0 000 1.1v32.57H142.8V333.68h43.34v88h0a7.52 7.52 0 0015 0h0V347.2h32.62a7.59 7.59 0 003.14-.69c.09 0 9.63-4.43 22.27-9.83 24.75-10.59 39.16-28 49.75-60.1a237.79 237.79 0 008.51-34.58l3.76-22.1c8.82 2 13.68 9 15.85 22.28a70 70 0 01-.61 25l-16 80.71a3.54 3.54 0 01-.08.45c0 .15-.42 3-1.42 7.41a24.75 24.75 0 00-1.89 7.52c-6 21.25-21.27 57.65-56.33 57.65a7.52 7.52 0 10-1.1 15 6.73 6.73 0 001.1 0c23.25 0 42.63-12 56.54-34.82a24.35 24.35 0 00-.33 4v4.21a25.1 25.1 0 007.89 18.26A27.21 27.21 0 00325 466l.47.45a27.21 27.21 0 00-8.56 19.78zm80.94 12.25h-53.66a12.26 12.26 0 010-24.51h53.66a12.26 12.26 0 01.7 24.51zM418.24 459h-74.05a12.25 12.25 0 010-24.5h74.05a12.25 12.25 0 010 24.5zm21.38-49.68a10.16 10.16 0 01-10.14 10.15h-87.4a10.16 10.16 0 01-10.14-10.15v-4.21A10.15 10.15 0 01342.08 395h87.4a10.15 10.15 0 0110.14 10.14z" transform="translate(.02 .01)" stroke="url(#b)"/><path d="M152.21 109.9a14 14 0 00-11.34-9.56l-34.16-5-15.28-30.92a14.05 14.05 0 00-25.2 0L51 95.37l-34.16 5a14.06 14.06 0 00-7.79 24l24.68 24-5.84 34a14 14 0 0020.39 14.81l30.55-16.06 30.56 16.06a14 14 0 0020.38-14.81l-5.83-34 24.71-24.1a14 14 0 003.56-14.37zM113.08 138a14 14 0 00-4 12.43l5.55 32.57-29.26-15.37a14.07 14.07 0 00-13.08 0L43 183l5.59-32.58a14.07 14.07 0 00-4-12.43l-23.68-23.07 32.71-4.75a14 14 0 0010.58-7.69l14.63-29.64 14.63 29.64a14 14 0 0010.54 7.69l32.71 4.75z" transform="translate(.02 .01)" stroke="url(#c)"/><path d="M310.24 54.81a14 14 0 00-11.34-9.56l-34.16-5-15.28-30.92a14.05 14.05 0 00-25.2 0L209 40.28l-34.15 5a14 14 0 00-7.79 24l24.72 24.09-5.84 34a14.05 14.05 0 0020.39 14.81l30.55-16.06 30.55 16.06a14 14 0 0020.39-14.81l-5.84-34 24.72-24.09a14 14 0 003.54-14.47zm-39.13 28.1a14 14 0 00-4 12.43l5.59 32.58-29.3-15.38a14.07 14.07 0 00-13.08 0l-29.26 15.38 5.59-32.58a14 14 0 00-4-12.43l-23.71-23.08 32.71-4.75a14 14 0 0010.58-7.69l14.63-29.64 14.63 29.64a14 14 0 0010.58 7.69l32.71 4.75z" transform="translate(.02 .01)" stroke="url(#d)"/><path d="M468 109.9a14 14 0 00-11.34-9.56l-34.16-5-15.27-31a14.05 14.05 0 00-25.2 0l-15.28 31-34.16 5a14.06 14.06 0 00-7.79 24l24.72 24.09-5.83 34a14 14 0 0020.31 14.8l30.56-16.06 30.55 16.06a14 14 0 0020.39-14.81l-5.84-34 24.72-24.09A14 14 0 00468 109.9zM428.85 138a14 14 0 00-4 12.43l5.54 32.57-29.26-15.38a14 14 0 00-13.07 0L358.8 183l5.59-32.58a14 14 0 00-4-12.43l-23.68-23.08 32.72-4.75a14.07 14.07 0 0010.57-7.68l14.6-29.64 14.63 29.64a14 14 0 0010.58 7.69l32.71 4.75z" transform="translate(.02 .01)" stroke="url(#e)"/></g></svg>