<svg data-name="Layer 1" height="65" width="52" xmlns="http://www.w3.org/2000/svg" xmlns:xlink="http://www.w3.org/1999/xlink" viewBox="0 0 514.99 419.06"><defs><linearGradient id="a" x1="175.8" y1="212.44" x2="514.99" y2="212.44" gradientTransform="matrix(1 0 0 -1 0 422)" gradientUnits="userSpaceOnUse"><stop offset="0" stop-color="#9932f5"/><stop offset=".19" stop-color="#8432f4"/><stop offset=".58" stop-color="#5033f1"/><stop offset=".62" stop-color="#4933f1"/><stop offset="1" stop-color="#496cfe"/></linearGradient><linearGradient id="b" x1="265.67" y1="113.4" x2="288.67" y2="113.4" xlink:href="#a"/><linearGradient id="c" x1="0" y1="212.37" x2="317.03" y2="212.37" xlink:href="#a"/><linearGradient id="d" x1="1.5" y1="335.55" x2="24.5" y2="335.55" xlink:href="#a"/><linearGradient id="e" x1="38" y1="335.54" x2="103.5" y2="335.54" xlink:href="#a"/><linearGradient id="f" x1="9" y1="89.25" x2="93.72" y2="89.25" xlink:href="#a"/></defs><g data-name="Capa 1" fill="none" stroke-miterlimit="10" stroke-width="3"><path d="M452.58 62.53a207.75 207.75 0 00-265.39-24A10 10 0 10198.58 55a187.36 187.36 0 0161.75-28A129.72 129.72 0 00249 43.64c-14.32 24.8-25 58.72-30.78 98.1a10 10 0 0019.78 2.92c1.22-8.25 2.68-16.29 4.35-24h126.31a419.59 419.59 0 018.83 79h-28a10 10 0 000 20h28a419.59 419.59 0 01-8.83 79h-49.49a10 10 0 000 20h44.52a250.39 250.39 0 01-9.37 27.17c-12.68 30.56-28.91 49-45.06 51.52q-3.72.07-7.44 0c-28.22-4.25-55-56.76-64.53-128a10 10 0 10-19.87 2.27c0 .13 0 .25.05.38 5.47 40.73 16 75.94 30.56 101.84a132.72 132.72 0 0012.07 18.09 185.29 185.29 0 01-66.8-31.43 10 10 0 10-12 16 207.79 207.79 0 00124.14 41.09h0q7.11 0 14.25-.49C434.3 409.25 520.84 310 513 195.38a208 208 0 00-60.42-132.85zm40.65 137.07H397.5a446 446 0 00-8.42-79h82.11a186.42 186.42 0 0122.04 79zm-245.87-99c5.17-18.18 11.61-34.2 19-47 11.93-20.66 25.84-32 39.16-32 17.37 0 35.16 18.89 48.81 51.83a246.17 246.17 0 019.37 27.17zm125.43-34.83C366.3 50.12 358.85 37.14 350.67 27a187.85 187.85 0 0187.77 49.63 189.78 189.78 0 0120.28 23.93h-74.3a276.79 276.79 0 00-11.63-34.79zm65.65 276.77A187 187 0 01351 391.77c8.05-10 15.39-22.89 21.79-38.33a275.37 275.37 0 0011.63-34.84h74.3a189.87 189.87 0 01-20.28 23.94zm-49.36-43.94a444.17 444.17 0 008.42-79h95.73a186.37 186.37 0 01-22 79z" transform="translate(0 -.03)" stroke="url(#a)"/><path d="M284.24 301.53a10 10 0 102.93 7.07 10 10 0 00-2.93-7.07z" transform="translate(0 -.03)" stroke="url(#b)"/><path d="M313.44 203.47a84 84 0 00-66.28-32.72h-36.31l-36.64-88.13a10 10 0 00-9.21-6.16h-37.78a10 10 0 00-10 10v84.29h-36.5l-25.54-30.61a10 10 0 00-7.68-3.59h-36a10 10 0 00-8.69 14.95l33.06 58.05L2.81 267.6a10 10 0 008.69 14.95h36a10 10 0 007.68-3.55l25.55-30.61h36.49v84.4a10 10 0 0010 10H165a10 10 0 009.24-6.16l36.64-88.24h36.3a84 84 0 0066.28-32.72 10 10 0 00-.02-12.2zm-176.22-107h21.09l30.89 74.29h-52v-74.3zm21.08 226.28h-21.08v-74.46h52zm88.86-94.4H77.6a11.42 11.42 0 00-1.94-.1 10 10 0 00-7.2 3.59l-25.64 30.71H28.7l27.37-48.05a10 10 0 000-9.9l-27.37-48h14.12l25.64 30.72a10 10 0 007.23 3.58 10.3 10.3 0 001.92-.1h169.55a64 64 0 0145.09 18.8 64 64 0 01-45.09 18.75z" transform="translate(0 -.03)" stroke="url(#c)"/><path d="M20.07 79.38A10 10 0 1023 86.45a10 10 0 00-2.93-7.07z" transform="translate(0 -.03)" stroke="url(#d)"/><path d="M92 76.46H49.5a10 10 0 100 20H92a10 10 0 000-20z" transform="translate(0 -.03)" stroke="url(#e)"/><path d="M82.22 322.75H20.5a10 10 0 000 20h61.72a10 10 0 100-20z" transform="translate(0 -.03)" stroke="url(#f)"/></g></svg>