<svg data-name="Layer 1" xmlns="http://www.w3.org/2000/svg" height="65" width="52" xmlns:xlink="http://www.w3.org/1999/xlink" viewBox="0 0 187.12 257.87"><defs><linearGradient id="a" x1="261.4" y1="109.08" x2="448.52" y2="109.08" gradientTransform="matrix(1 0 0 -1 0 260)" gradientUnits="userSpaceOnUse"><stop offset="0" stop-color="#9932f5"/><stop offset=".19" stop-color="#8432f4"/><stop offset=".58" stop-color="#5033f1"/><stop offset=".62" stop-color="#4933f1"/><stop offset="1" stop-color="#496cfe"/></linearGradient><linearGradient id="b" x1="309.07" y1="153.61" x2="400.92" y2="153.61" xlink:href="#a"/><linearGradient id="c" x1="339.11" y1="153.57" x2="368.1" y2="153.57" xlink:href="#a"/></defs><g data-name="Layer 1-2" fill="none"><path d="M346.91 24.54c3.29-.92 6.84-1.61 10.16-.43l1.07 2.47c-.94 2.15-3.16 3-5.37 3a26.39 26.39 0 00-21.7 14.5c-1.07 2.23-3.74 1.18-5.57.81a26 26 0 00-22.52 5 26.46 26.46 0 00-9.17 28.79c.81 2.44-1.33 4.21-3.31 5.08-12.33 7.08-16.25 24.92-8.47 36.71 2.42 4.12 6.22 7.13 10.21 9.63 3.15 1.93.83 5.67.57 8.45-2.26 14.43 9.6 28.83 24 30 4.38.47 8.67-.65 13-1.4 2.87 3.32 4.64 7.59 8.29 10.2 9 7.52 23.06 8 32.48 1 4.31-2.73 6.55-7.47 9.71-11.29 6.64 1.64 14 2.58 20.36-.5a26.29 26.29 0 0016.23-20c1.43-5-.62-9.94-.78-14.9 2.56-3.1 6.79-4.4 9.19-7.74 9-9.32 9-25.51.31-35-2.53-3.37-6.39-5.24-9.65-7.75.65-5.65 2.48-11.46.45-17.06-1.87-8.56-8.57-15.48-16.69-18.47-6.2-2.73-13.06-1.45-19.43-.17-2.62-3.18-4.71-6.82-7.94-9.47a5.77 5.77 0 01-2.21-5c1.23-.94 2.74-2.2 4.29-1 3.42 2.46 5.9 6 8.4 9.32 9.42-2.15 20-.55 27.62 5.59 10.48 7.39 14.72 21.48 11.7 33.72a32.08 32.08 0 010 55.44c2.18 9.12.65 19.27-4.9 26.94-2.75 4.14-6.86 7.12-11.11 9.57q20 34.78 40.16 69.52c1.67 1.91.5 5.92-2.35 5.46-12.27.12-24.55 0-36.82 0-5.3 9.82-10.63 19.62-15.9 29.46-.86 1.32-1.67 3.28-3.53 3.21-1.56.28-2.47-1.42-3.18-2.51q-14.76-25.72-29.62-51.4-14.67 25.6-29.14 51.27c-.9 2-4 4.09-5.53 1.53-6-10.39-11.55-21.05-17.42-31.52-12.37-.06-24.75.11-37.12-.07-2.67.3-3.49-3.4-2-5.13q20.19-34.89 40.34-69.8c-4.65-2.94-9.56-6.1-12.2-11.11a34.07 34.07 0 01-3.82-25.32c-9.22-5.52-15.89-15.65-15.94-26.57-.78-11.69 5.88-23.11 15.89-28.95a34.08 34.08 0 013.75-25.19c7.07-12 22.3-17.48 35.62-14.08a31.56 31.56 0 0119.59-14.84zM271 239.64h30.78a14 14 0 014.93.76c5.16 9.77 10.79 19.31 15.58 29.28 2.33-5.28 5.59-10.07 8.34-15.13 13.44-23.25 26.55-46.7 40.18-69.83-14.13 9.77-35.47 3.41-43.55-11.33a35.21 35.21 0 01-17.8-.49c-12.73 22.29-25.62 44.5-38.46 66.74zm112.75-66q-12.71 22.53-25.49 45c9.69 16.94 19.65 33.73 29.25 50.71 4.45-8.77 9.38-17.3 14-26 .91-1.65 1.95-3.82 4.19-3.7 11-.06 22 0 33.06 0q-19.15-33.37-38.27-66.79c-5.43 1.81-11.17 1.7-16.74.78z" transform="translate(-261.4 -21.98)" stroke="url(#a)" stroke-miterlimit="10.43" stroke-width="3"/><path d="M348.28 62.5a42.6 42.6 0 0129 5.67 44.25 44.25 0 0121.87 33.43 43.38 43.38 0 01-6.42 28 44.25 44.25 0 01-60.81 14.77 43.31 43.31 0 01-7.26-5.52c-16.36-14.41-18.84-41.54-5.5-58.74a44.29 44.29 0 0129.12-17.61zm-3.18 6.77c-14.78 3.77-26.57 17.08-28.17 32.31a38.35 38.35 0 1028.17-32.31z" transform="translate(-261.4 -21.98)" stroke="url(#b)" stroke-miterlimit="10.43" stroke-width="3"/><path d="M340.13 104a1.66 1.66 0 00.48 1l5.28 5.15-1.24 7.26a1.67 1.67 0 001.36 1.93h0a1.63 1.63 0 001.06-.16l6.52-3.44 6.53 3.43a1.66 1.66 0 002.25-.7h0a1.72 1.72 0 00.17-1.07l-1.24-7.26 5.27-5.14a1.67 1.67 0 00-.93-2.86l-7.23-1.14-3.3-6.61a1.68 1.68 0 00-2.26-.74 1.66 1.66 0 00-.74.74l-3.26 6.61-7.3 1.06a1.67 1.67 0 00-1.42 1.94zm10.06.23a1.64 1.64 0 001.22-.9L353.6 99l2.15 4.35a1.68 1.68 0 001.26.92l4.81.7-3.47 3.39a1.67 1.67 0 00-.49 1.48l.82 4.78-4.27-2.28a1.66 1.66 0 00-1.56 0l-4.3 2.26.82-4.78a1.7 1.7 0 00-.48-1.48l-3.48-3.34z" transform="translate(-261.4 -21.98)" stroke-miterlimit="10" stroke-width="2" stroke="url(#c)"/></g></svg>